<svg xmlns="http://www.w3.org/2000/svg" viewBox="0 0 61.8 61.8" width="288" height="288" version="1.1" xmlns:xlink="http://www.w3.org/1999/xlink" xmlns:svgjs="http://svgjs.com/svgjs"><g data-name="Layer 2"></g><g data-name="—ÎÓÈ 1"></g><circle cx="30.9" cy="30.9" r="30.9" fill="#52cc99" class="color485a69 svgShape"></circle><path fill="#ffffff" fill-rule="evenodd" d="M23.242 38.592l15.92.209v12.918l-15.907-.121-.013-13.006z" class="colorf9dca4 svgShape"></path><path fill="#ffffff" fill-rule="evenodd" d="M53.478 51.993A30.814 30.814 0 0 1 30.9 61.8a31.225 31.225 0 0 1-3.837-.237A30.699 30.699 0 0 1 15.9 57.919a31.033 31.033 0 0 1-7.857-6.225l1.284-3.1 13.925-6.212c0 4.535 1.84 6.152 7.97 6.244 7.57.113 7.94-1.606 7.94-6.28l12.79 6.281z" class="colord5e1ed svgShape"></path><path fill-rule="evenodd" d="M39.165 38.778v3.404c-2.75 4.914-14 4.998-15.923-3.59z" opacity=".11"></path><path fill="#ffffff" fill-rule="evenodd" d="M31.129 8.432c21.281 0 12.987 35.266 0 35.266-12.267 0-21.281-35.266 0-35.266z" class="colorffe8be svgShape"></path></svg>
